<svg id="visual" viewBox="0 0 1472 708" width="1472" height="708" xmlns="http://www.w3.org/2000/svg" xmlns:xlink="http://www.w3.org/1999/xlink" version="1.1"><path d="M0 72L24.5 69.7C49 67.3 98 62.7 147 57.8C196 53 245 48 294.2 58.5C343.3 69 392.7 95 441.8 95C491 95 540 69 589 59.7C638 50.3 687 57.7 736 63.7C785 69.7 834 74.3 883 80.2C932 86 981 93 1030.2 87C1079.3 81 1128.7 62 1177.8 57.3C1227 52.7 1276 62.3 1325 69.5C1374 76.7 1423 81.3 1447.5 83.7L1472 86L1472 0L1447.5 0C1423 0 1374 0 1325 0C1276 0 1227 0 1177.8 0C1128.7 0 1079.3 0 1030.2 0C981 0 932 0 883 0C834 0 785 0 736 0C687 0 638 0 589 0C540 0 491 0 441.8 0C392.7 0 343.3 0 294.2 0C245 0 196 0 147 0C98 0 49 0 24.5 0L0 0Z" fill="#ffffff"></path><path d="M0 164L24.5 174.7C49 185.3 98 206.7 147 200.7C196 194.7 245 161.3 294.2 154.2C343.3 147 392.7 166 441.8 174.3C491 182.7 540 180.3 589 191C638 201.7 687 225.3 736 221.8C785 218.3 834 187.7 883 182.8C932 178 981 199 1030.2 215.5C1079.3 232 1128.7 244 1177.8 246.5C1227 249 1276 242 1325 226.7C1374 211.3 1423 187.7 1447.5 175.8L1472 164L1472 84L1447.5 81.7C1423 79.3 1374 74.7 1325 67.5C1276 60.3 1227 50.7 1177.8 55.3C1128.7 60 1079.3 79 1030.2 85C981 91 932 84 883 78.2C834 72.3 785 67.7 736 61.7C687 55.7 638 48.3 589 57.7C540 67 491 93 441.8 93C392.7 93 343.3 67 294.2 56.5C245 46 196 51 147 55.8C98 60.7 49 65.3 24.5 67.7L0 70Z" fill="#eadcfe"></path><path d="M0 277L24.5 292.3C49 307.7 98 338.3 147 326.5C196 314.7 245 260.3 294.2 249.7C343.3 239 392.7 272 441.8 276.8C491 281.7 540 258.3 589 259.7C638 261 687 287 736 296.3C785 305.7 834 298.3 883 295.8C932 293.3 981 295.7 1030.2 301.7C1079.3 307.7 1128.7 317.3 1177.8 331.5C1227 345.7 1276 364.3 1325 350.2C1374 336 1423 289 1447.5 265.5L1472 242L1472 162L1447.5 173.8C1423 185.7 1374 209.3 1325 224.7C1276 240 1227 247 1177.8 244.5C1128.7 242 1079.3 230 1030.2 213.5C981 197 932 176 883 180.8C834 185.7 785 216.3 736 219.8C687 223.3 638 199.7 589 189C540 178.3 491 180.7 441.8 172.3C392.7 164 343.3 145 294.2 152.2C245 159.3 196 192.7 147 198.7C98 204.7 49 183.3 24.5 172.7L0 162Z" fill="#d4bafd"></path><path d="M0 603L24.5 579.3C49 555.7 98 508.3 147 493C196 477.7 245 494.3 294.2 512C343.3 529.7 392.7 548.3 441.8 535.3C491 522.3 540 477.7 589 455.3C638 433 687 433 736 447.2C785 461.3 834 489.7 883 497.8C932 506 981 494 1030.2 504.7C1079.3 515.3 1128.7 548.7 1177.8 552.3C1227 556 1276 530 1325 500.5C1374 471 1423 438 1447.5 421.5L1472 405L1472 240L1447.5 263.5C1423 287 1374 334 1325 348.2C1276 362.3 1227 343.7 1177.8 329.5C1128.7 315.3 1079.3 305.7 1030.2 299.7C981 293.7 932 291.3 883 293.8C834 296.3 785 303.7 736 294.3C687 285 638 259 589 257.7C540 256.3 491 279.7 441.8 274.8C392.7 270 343.3 237 294.2 247.7C245 258.3 196 312.7 147 324.5C98 336.3 49 305.7 24.5 290.3L0 275Z" fill="#bb98fb"></path><path d="M0 709L24.5 709C49 709 98 709 147 709C196 709 245 709 294.2 709C343.3 709 392.7 709 441.8 709C491 709 540 709 589 709C638 709 687 709 736 709C785 709 834 709 883 709C932 709 981 709 1030.2 709C1079.3 709 1128.7 709 1177.8 709C1227 709 1276 709 1325 709C1374 709 1423 709 1447.5 709L1472 709L1472 403L1447.5 419.5C1423 436 1374 469 1325 498.5C1276 528 1227 554 1177.8 550.3C1128.7 546.7 1079.3 513.3 1030.2 502.7C981 492 932 504 883 495.8C834 487.7 785 459.3 736 445.2C687 431 638 431 589 453.3C540 475.7 491 520.3 441.8 533.3C392.7 546.3 343.3 527.7 294.2 510C245 492.3 196 475.7 147 491C98 506.3 49 553.7 24.5 577.3L0 601Z" fill="#a076f9"></path></svg>