<svg id="visual" viewBox="0 0 900 450" width="900" height="450" xmlns="http://www.w3.org/2000/svg" xmlns:xlink="http://www.w3.org/1999/xlink" version="1.1"><rect x="0" y="0" width="900" height="450" fill="#ffffff"></rect><path d="M0 31L21.5 33C43 35 86 39 128.8 44.3C171.7 49.7 214.3 56.3 257.2 53.3C300 50.3 343 37.7 385.8 32C428.7 26.3 471.3 27.7 514.2 29.2C557 30.7 600 32.3 642.8 35.7C685.7 39 728.3 44 771.2 44.8C814 45.7 857 42.3 878.5 40.7L900 39L900 0L878.5 0C857 0 814 0 771.2 0C728.3 0 685.7 0 642.8 0C600 0 557 0 514.2 0C471.3 0 428.7 0 385.8 0C343 0 300 0 257.2 0C214.3 0 171.7 0 128.8 0C86 0 43 0 21.5 0L0 0Z" fill="#6499E9" stroke-linecap="round" stroke-linejoin="miter"></path></svg>